{
	"asset":{
		"generator":"Khronos glTF Blender I/O v3.6.27",
		"version":"2.0"
	},
	"scene":0,
	"scenes":[
		{
			"name":"Scene",
			"nodes":[
				0
			]
		}
	],
	"nodes":[
		{
			"mesh":0,
			"name":"teapot",
			"rotation":[
				0.7071068286895752,
				0,
				0,
				0.7071068286895752
			]
		}
	],
	"meshes":[
		{
			"name":"teapot",
			"primitives":[
				{
					"attributes":{
						"POSITION":0,
						"NORMAL":1,
						"TEXCOORD_0":2,
						"TANGENT":3
					},
					"indices":4
				}
			]
		}
	],
	"accessors":[
		{
			"bufferView":0,
			"componentType":5126,
			"count":18960,
			"max":[
				3.434000015258789,
				2,
				0
			],
			"min":[
				-3,
				-2,
				-3.1500000953674316
			],
			"type":"VEC3"
		},
		{
			"bufferView":1,
			"componentType":5126,
			"count":18960,
			"type":"VEC3"
		},
		{
			"bufferView":2,
			"componentType":5126,
			"count":18960,
			"type":"VEC2"
		},
		{
			"bufferView":3,
			"componentType":5126,
			"count":18960,
			"type":"VEC4"
		},
		{
			"bufferView":4,
			"componentType":5123,
			"count":18960,
			"type":"SCALAR"
		}
	],
	"bufferViews":[
		{
			"buffer":0,
			"byteLength":227520,
			"byteOffset":0,
			"target":34962
		},
		{
			"buffer":0,
			"byteLength":227520,
			"byteOffset":227520,
			"target":34962
		},
		{
			"buffer":0,
			"byteLength":151680,
			"byteOffset":455040,
			"target":34962
		},
		{
			"buffer":0,
			"byteLength":303360,
			"byteOffset":606720,
			"target":34962
		},
		{
			"buffer":0,
			"byteLength":37920,
			"byteOffset":910080,
			"target":34963
		}
	],
	"buffers":[
		{
			"byteLength":948000,
			"uri":"teapot.bin"
		}
	]
}
